<?xml version="1.0" encoding="UTF-8"?>
<svg width="239px" height="43px" viewBox="0 0 239 43" version="1.1" xmlns="http://www.w3.org/2000/svg" xmlns:xlink="http://www.w3.org/1999/xlink">
    <!-- Generator: Sketch 42 (36781) - http://www.bohemiancoding.com/sketch -->
    <title>XAVIER</title>
    <desc>Created with Sketch.</desc>
    <defs></defs>
    <g id="Welcome" stroke="none" stroke-width="1" fill="none" fill-rule="evenodd">
        <g id="Desktop-HD" transform="translate(-176.000000, -449.000000)" fill="#FFFFFF">
            <path d="M206.984,492 L199.176,478.944 L191.368,492 L176.136,492 L190.408,470.112 L177.096,449.312 L192.264,449.312 L199.176,461.472 L205.96,449.312 L221.256,449.312 L207.944,470.048 L222.216,492 L206.984,492 Z M254.68,492 L253.016,486.496 L236.632,486.496 L234.968,492 L220.952,492 L236.696,449.312 L252.952,449.312 L268.696,492 L254.68,492 Z M244.824,460.704 L239.96,475.744 L249.688,475.744 L244.824,460.704 Z M280.616,492 L264.872,449.312 L279.528,449.312 L288.744,478.048 L297.96,449.312 L312.616,449.312 L296.872,492 L280.616,492 Z M315.96,492 L328.888,492 L328.888,449.312 L315.96,449.312 L315.96,492 Z M336.84,492 L369.224,492 L369.224,481.248 L349.768,481.248 L349.768,475.808 L368.776,475.808 L368.776,465.056 L349.768,465.056 L349.768,460.064 L369.224,460.064 L369.224,449.312 L336.84,449.312 L336.84,492 Z M399.512,492 L393.624,478.304 L388.952,478.304 L388.952,492 L376.024,492 L376.024,449.312 L398.808,449.312 C408.792,449.312 414.168,455.968 414.168,463.968 C414.168,471.328 409.88,475.232 406.488,476.896 L414.232,492 L399.512,492 Z M401.048,463.776 C401.048,461.472 399,460.064 396.824,460.064 L388.952,460.064 L388.952,467.552 L396.824,467.552 C399,467.552 401.048,466.144 401.048,463.776 Z" id="XAVIER"></path>
        </g>
    </g>
</svg>